<?xml version="1.0" encoding="UTF-8" standalone="no"?>
<!-- Created with Inkscape (http://www.inkscape.org/) -->

<svg
   version="1.1"
   id="svg92"
   width="375"
   height="375"
   viewBox="0 0 375 375"
   xmlns="http://www.w3.org/2000/svg"
   xmlns:svg="http://www.w3.org/2000/svg">
  <defs
     id="defs96">
    <clipPath
       clipPathUnits="userSpaceOnUse"
       id="clipPath112">
      <path
         d="M 1255.38,2769.33 H 1180 c -55.23,0 -100,-44.77 -100,-100 0,-55.23 44.77,-100 100,-100 h 75.38 c 55.23,0 100,44.77 100,100 0,55.23 -44.77,100 -100,100 z"
         id="path110" />
    </clipPath>
    <linearGradient
       x1="0"
       y1="0"
       x2="1"
       y2="0"
       gradientUnits="userSpaceOnUse"
       gradientTransform="matrix(275.376,0,0,-275.376,1080,2669.33)"
       spreadMethod="pad"
       id="linearGradient120">
      <stop
         style="stop-opacity:1;stop-color:#3cb29e"
         offset="0"
         id="stop114" />
      <stop
         style="stop-opacity:1;stop-color:#3d7a9d"
         offset="0.993163"
         id="stop116" />
      <stop
         style="stop-opacity:1;stop-color:#3d7a9d"
         offset="1"
         id="stop118" />
    </linearGradient>
    <clipPath
       clipPathUnits="userSpaceOnUse"
       id="clipPath130">
      <path
         d="m 3258.9,2989.2 -9.7,329.7 -7,236.9 c -1.2,41.3 -35.1,74.2 -76.4,74.2 H 1834.2 c -36.6,0 -67.4,-25.9 -74.7,-60.6 h -646.11 c -53.32,0 -99.84,-40.3 -103.18,-93.52 -3.67,-58.24 42.45,-106.48 99.79,-106.48 h 87.7 l 719,0.8 c 55.2,0 100,-44.8 100,-100 0,-55.2 -44.8,-100 -100,-100 l -500,0.9 c -4.5,0 -8.9,-0.3 -13.2,-0.9 -49,-6.4 -86.8,-48.4 -86.8,-99.1 0,-55.3 44.7,-100 100,-100 l 373.9,-1.5 c 55.3,0 100,-44.7 100,-100 0,-55.2 -44.7,-100 -100,-100 l -273.93,-0.27 c -57.44,0 -103.56,-48.41 -99.79,-106.65 3.44,-53.15 49.95,-93.35 103.21,-93.35 l 162.58,0.37 c 53.32,0.12 99.94,-39.91 103.76,-93.1 0.18,-2.55 0.27,-5.08 0.27,-7.6 0,-24.98 -9.16,-47.8 -24.3,-65.31 -25.55,-29.56 -40.45,-66.82 -41.6,-105.88 l -8.5,-288.01 c -1.3,-43.1 33.3,-78.7 76.4,-78.7 h 1422.6 c 43.1,0 77.7,35.6 76.4,78.7 z"
         id="path128" />
    </clipPath>
    <linearGradient
       x1="0"
       y1="0"
       x2="1"
       y2="0"
       gradientUnits="userSpaceOnUse"
       gradientTransform="matrix(2277.74,0,0,-2277.74,1010,2780.55)"
       spreadMethod="pad"
       id="linearGradient138">
      <stop
         style="stop-opacity:1;stop-color:#3cb29e"
         offset="0"
         id="stop132" />
      <stop
         style="stop-opacity:1;stop-color:#3d7a9d"
         offset="0.993163"
         id="stop134" />
      <stop
         style="stop-opacity:1;stop-color:#3d7a9d"
         offset="1"
         id="stop136" />
    </linearGradient>
  </defs>
  <g
     id="g100"
     transform="matrix(1,0,0,-1,0,500.00002)">
    <g
       id="g102"
       transform="matrix(0.12995757,0,0,0.12995757,-119.54355,-75.880401)">
      <path
         d="M 5000,0 H 0 V 5000 H 5000 V 0"
         style="fill:#ffffff;fill-opacity:1;fill-rule:nonzero;stroke:none"
         id="path104" />
      <g
         id="g106">
        <g
           id="g108"
           clip-path="url(#clipPath112)">
          <path
             d="M 1255.38,2769.33 H 1180 c -55.23,0 -100,-44.77 -100,-100 0,-55.23 44.77,-100 100,-100 h 75.38 c 55.23,0 100,44.77 100,100 0,55.23 -44.77,100 -100,100"
             style="fill:url(#linearGradient120);fill-opacity:1;fill-rule:nonzero;stroke:none"
             id="path122" />
        </g>
      </g>
      <g
         id="g124">
        <g
           id="g126"
           clip-path="url(#clipPath130)">
          <path
             d="m 3258.9,2989.2 -9.7,329.7 -7,236.9 c -1.2,41.3 -35.1,74.2 -76.4,74.2 H 1834.2 c -36.6,0 -67.4,-25.9 -74.7,-60.6 h -646.11 c -53.32,0 -99.84,-40.3 -103.18,-93.52 -3.67,-58.24 42.45,-106.48 99.79,-106.48 h 87.7 l 719,0.8 c 55.2,0 100,-44.8 100,-100 0,-55.2 -44.8,-100 -100,-100 l -500,0.9 c -4.5,0 -8.9,-0.3 -13.2,-0.9 -49,-6.4 -86.8,-48.4 -86.8,-99.1 0,-55.3 44.7,-100 100,-100 l 373.9,-1.5 c 55.3,0 100,-44.7 100,-100 0,-55.2 -44.7,-100 -100,-100 l -273.93,-0.27 c -57.44,0 -103.56,-48.41 -99.79,-106.65 3.44,-53.15 49.95,-93.35 103.21,-93.35 l 162.58,0.37 c 53.32,0.12 99.94,-39.91 103.76,-93.1 0.18,-2.55 0.27,-5.08 0.27,-7.6 0,-24.98 -9.16,-47.8 -24.3,-65.31 -25.55,-29.56 -40.45,-66.82 -41.6,-105.88 l -8.5,-288.01 c -1.3,-43.1 33.3,-78.7 76.4,-78.7 h 1422.6 c 43.1,0 77.7,35.6 76.4,78.7 l -28.8,979.4"
             style="fill:url(#linearGradient138);fill-opacity:1;fill-rule:nonzero;stroke:none"
             id="path140" />
        </g>
      </g>
      <path
         d="m 3576.05,3306.36 -317.15,-317.16 -9.7,329.7 157.16,157.15 c 46.89,46.9 122.9,46.9 169.69,0 46.91,-46.79 46.91,-122.79 0,-169.69"
         style="fill:#c64c5b;fill-opacity:1;fill-rule:nonzero;stroke:none"
         id="path142" />
      <path
         d="m 3258.9,2989.2 -625.4,-625.4 c -23.5,-23.5 -54.2,-35.2 -84.9,-35.2 -30.7,0 -61.4,11.7 -84.8,35.2 l -332,331.9 c -46.8,46.9 -46.8,122.8 0,169.7 46.9,46.9 122.9,46.9 169.7,0 l 247.1,-247.1 700.6,700.6 9.7,-329.7"
         style="fill:#ffffff;fill-opacity:1;fill-rule:nonzero;stroke:none"
         id="path144" />
      <path
         d="m 2492.82,4199.16 c -67.34,0 -131.59,-13.44 -190.21,-37.79 -183.45,-76.2 -299.82,-259.15 -299.82,-457.8 l 153.23,2.19 c 0,181.3 140.58,335.3 321.71,343.08 5,0.21 10.03,0.32 15.09,0.32 5.06,0 10.1,-0.11 15.1,-0.32 181.13,-7.78 321.71,-161.78 321.71,-343.08 l 153.22,-2.19 c 0,198.65 -116.36,381.6 -299.81,457.8 -58.63,24.35 -122.87,37.79 -190.22,37.79"
         style="fill:#c64c5b;fill-opacity:1;fill-rule:nonzero;stroke:none"
         id="path158" />
    </g>
  </g>
</svg>
